<svg width="48" height="48" viewBox="0 0 48 48" fill="none" xmlns="http://www.w3.org/2000/svg">
<path opacity="0.4" d="M42.2021 19.1757H39.7959V16.8232C39.7959 15.8189 38.9904 15 37.9979 15C37.0075 15 36.2 15.8189 36.2 16.8232V19.1757H33.7979C32.8055 19.1757 32 19.9946 32 20.999C32 22.0033 32.8055 22.8222 33.7979 22.8222H36.2V25.1768C36.2 26.1811 37.0075 27 37.9979 27C38.9904 27 39.7959 26.1811 39.7959 25.1768V22.8222H42.2021C43.1925 22.8222 44 22.0033 44 20.999C44 19.9946 43.1925 19.1757 42.2021 19.1757Z" fill="#542E71"/>
<path d="M19 30.031C10.9084 30.031 4 31.3247 4 36.4932C4 41.6597 10.8664 43 19 43C27.0896 43 34 41.7063 34 36.5378C34 31.3693 27.1336 30.031 19 30.031Z" fill="#542E71"/>
<path opacity="0.4" d="M19 25.1084C24.5091 25.1084 28.9253 20.6354 28.9253 15.0552C28.9253 9.47507 24.5091 5 19 5C13.4909 5 9.07474 9.47507 9.07474 15.0552C9.07474 20.6354 13.4909 25.1084 19 25.1084Z" fill="#542E71"/>
</svg>
