<svg width="49" height="49" viewBox="0 0 49 49" fill="none" xmlns="http://www.w3.org/2000/svg">
<path d="M17.3605 6.32465C21.7302 3.78566 27.1013 3.83004 31.4301 6.4409C35.7162 9.10494 38.3212 13.8595 38.2971 18.974C38.1972 24.055 35.4039 28.8311 31.9122 32.5233C29.897 34.6639 27.6425 36.5568 25.195 38.1632C24.9429 38.3089 24.6668 38.4065 24.3803 38.4511C24.1045 38.4394 23.8359 38.3579 23.5988 38.214C19.8621 35.8002 16.584 32.7192 13.9219 29.119C11.6945 26.1138 10.429 22.4831 10.2973 18.7199L10.3073 18.1725C10.4891 13.2604 13.1469 8.77297 17.3605 6.32465ZM26.1118 14.5207C24.3354 13.7656 22.2874 14.1758 20.9239 15.5598C19.5605 16.9438 19.1506 19.0286 19.8856 20.8407C20.6207 22.6528 22.3556 23.8348 24.2805 23.8348C25.5415 23.8439 26.7537 23.3388 27.6469 22.4321C28.5401 21.5254 29.0403 20.2924 29.0358 19.0079C29.0425 17.0472 27.8882 15.2757 26.1118 14.5207Z" fill="#542E71"/>
<path opacity="0.4" d="M24.2973 44.4511C29.8201 44.4511 34.2973 43.5557 34.2973 42.4511C34.2973 41.3465 29.8201 40.4511 24.2973 40.4511C18.7744 40.4511 14.2973 41.3465 14.2973 42.4511C14.2973 43.5557 18.7744 44.4511 24.2973 44.4511Z" fill="#542E71"/>
</svg>
