<svg width="49" height="49" viewBox="0 0 49 49" fill="none" xmlns="http://www.w3.org/2000/svg">
<path d="M33.1978 17.7755C37.9127 17.7755 41.7354 21.5139 41.7354 26.1248V35.9985C41.7354 40.6094 37.9127 44.3478 33.1978 44.3478H16.273C11.5581 44.3478 7.73543 40.6094 7.73543 35.9985V26.1248C7.73543 21.5139 11.5581 17.7755 16.273 17.7755H33.1978ZM24.7253 27.1165C23.7498 27.1165 22.9572 27.8916 22.9572 28.8456V33.2578C22.9572 34.2316 23.7498 35.0067 24.7253 35.0067C25.7211 35.0067 26.5137 34.2316 26.5137 33.2578V28.8456C26.5137 27.8916 25.7211 27.1165 24.7253 27.1165Z" fill="#542E71"/>
<path opacity="0.4" d="M35.7811 15.1397V18.0811C35.0698 17.8824 34.3178 17.783 33.5456 17.783H32.2246V15.1397C32.2246 11.1051 28.8713 7.82583 24.7458 7.82583C20.6203 7.82583 17.267 11.0853 17.2467 15.0999V17.783H15.946C15.1534 17.783 14.4015 17.8824 13.6902 18.101V15.1397C13.7105 9.1773 18.649 4.34778 24.7051 4.34778C30.8426 4.34778 35.7811 9.1773 35.7811 15.1397Z" fill="#542E71"/>
</svg>
